<?xml version="1.0" standalone="no"?>
<!DOCTYPE svg PUBLIC "-//W3C//DTD SVG 20010904//EN"
 "http://www.w3.org/TR/2001/REC-SVG-20010904/DTD/svg10.dtd">
<svg version="1.0" xmlns="http://www.w3.org/2000/svg"
 width="700.000000pt" height="700.000000pt" viewBox="0 0 700.000000 700.000000"
 preserveAspectRatio="xMidYMid meet">
<metadata>
Created by potrace 1.14, written by Peter Selinger 2001-2017
</metadata>
<g transform="translate(0.000000,700.000000) scale(0.100000,-0.100000)"
fill="#000000" stroke="none">
<path d="M3295 6881 c-2 -1 -23 -5 -47 -7 -213 -17 -271 -25 -403 -53 -55 -12
-115 -24 -133 -27 -18 -3 -70 -17 -115 -30 -45 -14 -113 -34 -150 -44 -37 -10
-73 -22 -80 -27 -7 -6 -48 -22 -92 -37 -83 -29 -308 -135 -393 -185 -27 -16
-60 -32 -73 -36 -13 -4 -42 -21 -64 -37 -22 -16 -92 -63 -155 -105 -63 -41
-117 -78 -120 -82 -3 -4 -45 -38 -95 -76 -122 -95 -434 -408 -525 -528 -141
-186 -204 -276 -235 -337 -10 -18 -24 -40 -31 -48 -8 -7 -14 -17 -14 -22 0 -5
-10 -24 -23 -43 -70 -104 -260 -552 -292 -692 -3 -11 -9 -31 -14 -45 -11 -27
-41 -142 -46 -175 -2 -11 -9 -49 -15 -85 -6 -36 -13 -74 -14 -85 -2 -11 -6
-27 -9 -35 -3 -8 -8 -40 -11 -70 -3 -30 -10 -82 -15 -116 -12 -67 -12 -59 -11
-339 0 -195 4 -318 14 -400 2 -22 7 -65 11 -95 8 -74 9 -83 17 -95 4 -6 12
-48 18 -94 6 -46 18 -100 25 -120 8 -20 21 -64 30 -98 8 -34 29 -103 45 -153
16 -50 32 -103 35 -117 2 -15 8 -29 13 -32 5 -3 19 -35 31 -71 12 -36 35 -90
50 -120 16 -30 32 -69 36 -87 3 -18 15 -42 24 -55 10 -13 34 -52 52 -88 19
-36 40 -71 46 -78 7 -7 13 -18 13 -24 0 -14 88 -156 112 -180 9 -9 29 -40 43
-68 14 -27 34 -56 45 -63 12 -6 41 -42 66 -80 25 -37 75 -98 110 -135 182
-190 284 -290 319 -315 22 -15 68 -53 103 -86 35 -32 82 -69 104 -82 22 -13
64 -43 94 -67 30 -23 78 -55 107 -71 28 -15 76 -42 105 -60 132 -78 389 -204
474 -232 51 -17 103 -37 115 -45 12 -8 33 -14 47 -14 13 0 31 -6 38 -13 14
-14 121 -45 183 -53 22 -3 44 -9 49 -14 6 -6 21 -10 36 -10 14 0 43 -6 65 -14
43 -15 96 -24 185 -32 30 -2 66 -7 80 -9 14 -3 56 -7 95 -11 38 -3 90 -8 115
-11 92 -10 475 -11 487 -1 7 6 28 7 46 4 18 -3 37 -3 41 1 10 10 33 14 99 15
31 0 57 4 57 9 0 4 8 7 18 7 17 -1 92 7 167 18 22 4 53 13 68 21 16 8 34 12
40 10 13 -4 166 35 188 49 7 4 60 24 118 45 249 87 385 142 408 165 8 8 22 14
30 14 19 0 167 79 172 92 5 13 80 59 104 64 12 2 23 8 25 14 2 6 32 29 65 52
34 23 67 46 72 50 70 55 155 118 155 114 0 -4 28 21 62 54 33 33 67 60 74 60
7 0 18 9 24 20 6 11 16 20 23 21 7 0 38 28 70 62 32 34 93 99 137 145 44 45
79 86 77 90 -1 5 27 45 62 90 35 45 84 111 108 147 25 36 53 70 64 76 11 5 17
14 14 19 -7 11 51 106 70 113 7 3 13 14 13 24 -2 20 41 92 72 123 11 11 22 32
26 47 11 50 48 135 61 140 7 3 13 15 13 28 0 12 9 32 20 44 10 13 24 39 31 60
6 20 16 41 21 47 4 7 10 29 12 50 5 46 22 93 42 115 8 9 16 34 18 55 7 71 18
119 31 134 15 18 44 132 45 175 0 50 3 65 11 65 4 0 7 17 5 38 -1 20 1 51 5
67 4 17 10 48 13 70 3 22 12 58 20 79 8 24 11 50 6 66 -9 31 -4 140 8 184 5
17 7 58 5 91 -1 33 -3 111 -2 174 0 63 -4 117 -9 120 -5 3 -12 40 -16 81 -3
41 -15 129 -25 195 -11 66 -23 149 -26 185 -3 36 -15 82 -26 103 -10 21 -21
46 -22 55 -2 9 -9 36 -16 60 -6 23 -11 48 -9 55 1 6 -5 23 -14 37 -10 14 -17
34 -16 45 2 30 -40 150 -62 176 -11 12 -20 33 -20 46 0 13 -9 34 -20 46 -11
12 -19 28 -17 37 4 16 -60 153 -74 158 -4 2 -22 31 -40 65 -17 34 -58 105 -90
158 -33 54 -59 100 -59 103 0 3 -22 34 -50 67 -27 34 -47 66 -44 70 2 5 -7 16
-21 25 -14 9 -25 23 -25 31 0 18 -90 128 -131 161 -16 13 -27 28 -23 33 3 5
-3 12 -13 16 -10 4 -34 25 -53 47 -71 80 -241 245 -260 251 -11 4 -20 10 -20
15 0 9 -144 130 -155 130 -3 0 -54 33 -113 74 -136 93 -307 200 -363 226 -24
12 -66 32 -94 47 -27 14 -85 38 -128 54 -42 15 -89 34 -105 42 -40 22 -357
122 -418 133 -16 3 -56 12 -89 21 -33 8 -71 17 -85 20 -14 2 -45 9 -69 14 -25
5 -79 12 -120 16 -42 3 -94 9 -116 12 -57 10 -532 21 -540 12z m500 -244 c11
-3 53 -8 93 -11 40 -4 83 -11 96 -16 13 -5 26 -7 29 -4 7 8 279 -54 403 -92
196 -59 406 -148 594 -252 295 -161 499 -317 739 -561 483 -493 790 -1123 876
-1801 3 -25 8 -63 11 -85 12 -100 11 -506 -2 -625 -68 -628 -288 -1168 -677
-1659 -76 -97 -289 -320 -382 -401 -342 -298 -757 -526 -1182 -650 -76 -22
-150 -43 -165 -45 -16 -3 -56 -12 -90 -19 -87 -20 -184 -34 -368 -54 -87 -9
-454 -9 -555 1 -548 52 -1066 241 -1520 556 -76 53 -90 63 -118 86 -7 6 -37
30 -67 55 -268 218 -522 510 -698 800 -89 148 -242 459 -258 527 -4 16 -10 33
-14 38 -15 19 -82 246 -115 390 -11 45 -40 214 -50 285 -27 198 -27 639 0 795
2 17 7 44 9 60 28 210 116 534 203 745 94 229 256 509 400 692 29 37 53 71 53
77 0 5 6 14 14 18 8 4 40 40 71 78 176 215 540 522 736 620 30 15 63 36 74 46
11 10 52 32 90 50 39 17 77 37 85 43 8 7 47 25 85 40 39 15 95 39 125 53 30
13 64 29 75 34 11 5 35 11 54 14 18 3 49 14 70 24 35 18 246 78 299 85 15 2
47 8 72 14 25 6 68 13 97 16 29 2 57 7 62 10 11 7 54 13 163 22 45 3 85 8 87
10 5 5 472 -3 496 -9z"/>
<path d="M3069 5292 c-5 -82 -2 -152 6 -153 6 0 73 -1 150 -2 l140 -2 0 -412
c0 -274 3 -413 10 -414 31 -4 172 -5 181 -2 8 3 11 118 12 386 0 210 1 396 1
414 l1 32 128 -1 c70 0 136 0 147 1 19 1 20 7 19 84 l-1 82 -397 2 c-371 3
-396 2 -397 -15z"/>
<path d="M3142 3537 l3 -502 98 0 c80 0 97 3 98 15 0 8 1 104 1 213 l1 197
106 1 c58 0 152 0 208 -1 l101 -1 4 53 c1 29 2 68 0 86 l-3 32 -209 0 -208 0
1 120 1 120 243 0 244 0 -3 83 -3 82 -343 2 -342 1 2 -501z"/>
<path d="M3139 2758 c-1 -7 -2 -232 -3 -500 -1 -321 2 -488 9 -489 5 -1 51 -2
101 -3 l92 -1 0 165 c0 91 0 176 1 190 l1 25 138 1 c163 2 233 15 296 54 50
32 100 102 117 163 12 46 10 170 -4 212 -29 86 -105 156 -193 179 -73 19 -554
22 -555 4z m495 -189 c84 -57 76 -184 -15 -231 -50 -26 -278 -33 -280 -9 -1
18 -1 239 0 259 1 10 30 12 131 9 117 -4 133 -6 164 -28z"/>
</g>
</svg>
